<svg width="16" height="16" viewBox="0 0 16 16" fill="none" xmlns="http://www.w3.org/2000/svg">
<path d="M8.71555 8.00001L10.8756 5.84001C10.9484 5.75499 10.9864 5.64562 10.9821 5.53377C10.9778 5.42191 10.9314 5.31581 10.8522 5.23665C10.7731 5.1575 10.667 5.11113 10.5551 5.10681C10.4433 5.10249 10.3339 5.14054 10.2489 5.21335L8.08889 7.35113L5.91555 5.17779C5.83053 5.10498 5.72116 5.06693 5.60931 5.07125C5.49745 5.07557 5.39135 5.12194 5.31219 5.2011C5.23304 5.28025 5.18667 5.38636 5.18235 5.49821C5.17803 5.61007 5.21608 5.71944 5.28889 5.80446L7.45778 8.00001L5.33333 10.0978C5.28681 10.1376 5.24902 10.1867 5.22234 10.2418C5.19567 10.2969 5.18067 10.357 5.17831 10.4182C5.17595 10.4794 5.18626 10.5405 5.2086 10.5975C5.23095 10.6545 5.26484 10.7063 5.30815 10.7496C5.35147 10.793 5.40327 10.8268 5.4603 10.8492C5.51733 10.8715 5.57837 10.8818 5.63958 10.8795C5.70079 10.8771 5.76084 10.8621 5.81598 10.8354C5.87112 10.8088 5.92015 10.771 5.96 10.7245L8.08 8.60446L10.1867 10.7111C10.2717 10.7839 10.3811 10.822 10.4929 10.8177C10.6048 10.8133 10.7109 10.767 10.79 10.6878C10.8692 10.6087 10.9155 10.5026 10.9199 10.3907C10.9242 10.2788 10.8861 10.1695 10.8133 10.0845L8.71555 8.00001Z" fill="#794150"/>
<path d="M8.00003 15.1111C6.59359 15.1111 5.21873 14.6941 4.04931 13.9127C2.87989 13.1313 1.96844 12.0207 1.43022 10.7213C0.891997 9.42192 0.751173 7.99211 1.02556 6.61269C1.29994 5.23327 1.97721 3.96619 2.97172 2.97169C3.96622 1.97718 5.2333 1.29991 6.61272 1.02553C7.99214 0.751143 9.42195 0.891967 10.7213 1.43019C12.0207 1.96841 13.1313 2.87986 13.9127 4.04928C14.6941 5.21869 15.1111 6.59356 15.1111 8C15.1111 9.88598 14.3619 11.6947 13.0283 13.0283C11.6948 14.3619 9.88602 15.1111 8.00003 15.1111V15.1111ZM8.00003 1.77778C6.76939 1.77778 5.56639 2.1427 4.54315 2.82641C3.51991 3.51012 2.72239 4.4819 2.25145 5.61886C1.7805 6.75582 1.65728 8.0069 1.89737 9.2139C2.13745 10.4209 2.73006 11.5296 3.60025 12.3998C4.47045 13.27 5.57914 13.8626 6.78614 14.1027C7.99313 14.3428 9.24421 14.2195 10.3812 13.7486C11.5181 13.2776 12.4899 12.4801 13.1736 11.4569C13.8573 10.4336 14.2223 9.23064 14.2223 8C14.2223 6.34976 13.5667 4.76712 12.3998 3.60022C11.2329 2.43333 9.65027 1.77778 8.00003 1.77778V1.77778Z" fill="#794150"/>
</svg>
