<svg width="20" height="20" viewBox="0 0 20 20" fill="none" xmlns="http://www.w3.org/2000/svg">
<path d="M6.66675 15L8.33341 13.3333H10.0001L11.1334 12.2C12.2919 12.6036 13.5531 12.602 14.7105 12.1955C15.8679 11.7889 16.8531 11.0015 17.5048 9.96216C18.1564 8.92278 18.4359 7.69298 18.2976 6.47404C18.1592 5.2551 17.6112 4.11923 16.7432 3.25232C15.8752 2.3854 14.7387 1.83881 13.5196 1.702C12.3005 1.56518 11.071 1.84625 10.0324 2.4992C8.99388 3.15214 8.20773 4.1383 7.80264 5.29625C7.39755 6.4542 7.39753 7.71537 7.80258 8.87334L1.66675 15V18.3333H5.00008L6.66675 16.6667V15Z" stroke="#794150" stroke-width="2" stroke-linecap="round" stroke-linejoin="round"/>
<path d="M14.1668 6.66667C14.6271 6.66667 15.0002 6.29357 15.0002 5.83333C15.0002 5.3731 14.6271 5 14.1668 5C13.7066 5 13.3335 5.3731 13.3335 5.83333C13.3335 6.29357 13.7066 6.66667 14.1668 6.66667Z" stroke="#794150" stroke-width="2" stroke-linecap="round" stroke-linejoin="round"/>
</svg>
