<svg width="24" height="24" viewBox="0 0 24 24" fill="none" xmlns="http://www.w3.org/2000/svg">
<path d="M12.24 3.936C16.476 3.936 19.956 7.068 20.544 11.136H23.04L18.84 15.936L14.64 11.136H17.424C17.1555 9.96133 16.4967 8.91238 15.5551 8.16044C14.6136 7.40851 13.4449 6.99802 12.24 6.996C10.5 6.996 8.96396 7.848 7.99196 9.132L5.93996 6.792C6.72538 5.89387 7.69398 5.1743 8.78064 4.68168C9.86731 4.18906 11.0468 3.9348 12.24 3.936V3.936ZM11.76 20.064C7.53596 20.064 4.04396 16.932 3.45596 12.864H0.959961L5.15996 8.064C6.56396 9.66 7.95596 11.268 9.35996 12.864H6.57596C6.84442 14.0387 7.50322 15.0876 8.44477 15.8396C9.38633 16.5915 10.555 17.002 11.76 17.004C13.5 17.004 15.036 16.152 16.008 14.868L18.06 17.208C17.2753 18.107 16.3069 18.8272 15.22 19.3199C14.1332 19.8126 12.9533 20.0664 11.76 20.064V20.064Z" fill="#794150"/>
</svg>
