<svg width="22" height="22" viewBox="0 0 22 22" fill="none" xmlns="http://www.w3.org/2000/svg">
<path d="M7 17L9 15H11L12.36 13.64C13.7502 14.1243 15.2636 14.1224 16.6525 13.6346C18.0414 13.1467 19.2236 12.2018 20.0056 10.9546C20.7876 9.70734 21.123 8.23158 20.957 6.76885C20.791 5.30612 20.1334 3.94307 19.0918 2.90278C18.0502 1.86248 16.6863 1.20657 15.2234 1.0424C13.7604 0.878218 12.2851 1.2155 11.0388 1.99904C9.79256 2.78257 8.84917 3.96595 8.36307 5.3555C7.87696 6.74504 7.87694 8.25844 8.363 9.648L1 17V21H5L7 19V17Z" stroke="white" stroke-width="2" stroke-linecap="round" stroke-linejoin="round"/>
<path d="M16 7C16.5523 7 17 6.55228 17 6C17 5.44772 16.5523 5 16 5C15.4477 5 15 5.44772 15 6C15 6.55228 15.4477 7 16 7Z" stroke="white" stroke-width="2" stroke-linecap="round" stroke-linejoin="round"/>
</svg>
